<svg xmlns="http://www.w3.org/2000/svg" viewBox="0 0 800 500">
    <!-- Background -->
    <rect x="0" y="0" width="800" height="500" fill="#fff"/>
    
    <!-- Data Source -->
    <rect x="50" y="50" width="200" height="80" fill="#c8e6c9" stroke="#2e7d32" stroke-width="2" rx="5"/>
    <text x="150" y="95" text-anchor="middle" font-family="Arial" font-size="14" font-weight="bold">Raw Data Source</text>
    
    <!-- R Server Processing -->
    <rect x="300" y="30" width="200" height="400" fill="#f3e5f5" stroke="#7b1fa2" stroke-width="2"/>
    <text x="400" y="60" text-anchor="middle" font-family="Arial" font-size="16" font-weight="bold">R Server</text>
    
    <!-- Processing Steps -->
    <rect x="320" y="80" width="160" height="60" fill="#e1bee7" stroke="#6a1b9a" stroke-width="1"/>
    <text x="400" y="115" text-anchor="middle" font-family="Arial" font-size="12">Data Loading</text>
    
    <rect x="320" y="160" width="160" height="60" fill="#e1bee7" stroke="#6a1b9a" stroke-width="1"/>
    <text x="400" y="195" text-anchor="middle" font-family="Arial" font-size="12">Privacy Checks</text>
    
    <rect x="320" y="240" width="160" height="60" fill="#e1bee7" stroke="#6a1b9a" stroke-width="1"/>
    <text x="400" y="275" text-anchor="middle" font-family="Arial" font-size="12">Statistical Processing</text>
    
    <rect x="320" y="320" width="160" height="60" fill="#e1bee7" stroke="#6a1b9a" stroke-width="1"/>
    <text x="400" y="355" text-anchor="middle" font-family="Arial" font-size="12">Output Generation</text>
    
    <!-- Client Visualization -->
    <rect x="550" y="30" width="200" height="400" fill="#e3f2fd" stroke="#1565c0" stroke-width="2"/>
    <text x="650" y="60" text-anchor="middle" font-family="Arial" font-size="16" font-weight="bold">Client Browser</text>
    
    <!-- Visualization Components -->
    <rect x="570" y="80" width="160" height="60" fill="#bbdefb" stroke="#1976d2" stroke-width="1"/>
    <text x="650" y="115" text-anchor="middle" font-family="Arial" font-size="12">Data Rendering</text>
    
    <rect x="570" y="160" width="160" height="60" fill="#bbdefb" stroke="#1976d2" stroke-width="1"/>
    <text x="650" y="195" text-anchor="middle" font-family="Arial" font-size="12">User Interactions</text>
    
    <rect x="570" y="240" width="160" height="60" fill="#bbdefb" stroke="#1976d2" stroke-width="1"/>
    <text x="650" y="275" text-anchor="middle" font-family="Arial" font-size="12">Linked Views</text>
    
    <rect x="570" y="320" width="160" height="60" fill="#bbdefb" stroke="#1976d2" stroke-width="1"/>
    <text x="650" y="355" text-anchor="middle" font-family="Arial" font-size="12">UI Controls</text>
    
    <!-- Arrows -->
    <path d="M250 90 L300 90" fill="none" stroke="#424242" stroke-width="2" marker-end="url(#arrowhead2)"/>
    <path d="M500 110 L550 110" fill="none" stroke="#424242" stroke-width="2" marker-end="url(#arrowhead2)"/>
    <path d="M550 190 L500 190" fill="none" stroke="#424242" stroke-width="2" marker-end="url(#arrowhead2)"/>
    
    <!-- Arrow Marker -->
    <defs>
        <marker id="arrowhead2" markerWidth="10" markerHeight="7" refX="9" refY="3.5" orient="auto">
            <polygon points="0 0, 10 3.5, 0 7" fill="#424242"/>
        </marker>
    </defs>
    
    <!-- Labels -->
    <text x="275" y="80" text-anchor="middle" font-family="Arial" font-size="12">Raw Data</text>
    <text x="525" y="100" text-anchor="middle" font-family="Arial" font-size="12">Processed Data</text>
    <text x="525" y="180" text-anchor="middle" font-family="Arial" font-size="12">User Actions</text>
</svg>
